<svg version="1.0" xmlns="http://www.w3.org/2000/svg" width="1247.000000ptpx" height="1247.000000ptpx" viewBox="0 0 1247.000000 1247.000000" preserveAspectRatio="xMidYMid meet">

<g transform="translate(0.000000,1247.000000) scale(0.100000,-0.100000)" fill="#123aea">
<path d="M6680 10069 c-785 -68 -1547 -362 -2222 -857 -49 -35 -88 -66 -88&#10;-68 0 -3 26 12 58 33 469 304 1038 514 1592 588 167 23 525 31 687 16 554 -51&#10;1020 -220 1430 -518 298 -217 588 -555 747 -870 39 -78 43 -95 24 -88 -22 7&#10;-406 54 -613 75 -1068 105 -2281 100 -3415 -15 -902 -92 -1773 -253 -2495&#10;-461 -211 -61 -627 -198 -653 -215 -16 -10 -16 -10 1 -5 39 12 475 97 667 130&#10;524 90 1062 157 1615 201 826 65 1879 73 2680 20 337 -23 891 -78 1140 -115&#10;347 -50 806 -141 1120 -220 1108 -280 1824 -685 2041 -1155 87 -189 86 -400&#10;-5 -600 -138 -303 -512 -629 -1008 -879 -40 -20 -73 -38 -73 -41 0 -2 53 14&#10;118 36 1182 408 1884 926 1988 1467 81 425 -240 834 -919 1168 -290 143 -607&#10;259 -1000 367 l-189 52 -34 90 c-53 139 -175 377 -259 509 -206 322 -481 606&#10;-800 828 -426 296 -962 480 -1540 528 -139 11 -457 11 -595 -1z"/>
<path d="M9186 7343 c13 -142 7 -457 -11 -608 -41 -351 -131 -690 -271 -1019&#10;-477 -1120 -1509 -2025 -2678 -2345 -1075 -295 -2144 -76 -2845 582 -57 53&#10;-76 66 -83 56 -7 -11 -8 -11 -6 2 4 19 -122 160 -135 152 -6 -3 -7 -1 -3 5 3&#10;6 -8 26 -26 44 -18 18 -32 35 -33 38 0 3 -4 4 -8 2 -5 -1 -5 2 -2 8 4 7 -2 21&#10;-13 33 -35 39 -143 209 -201 318 -78 143 -134 273 -186 431 -24 73 -44 128&#10;-45 121 0 -24 50 -242 79 -338 55 -183 125 -364 198 -510 52 -104 146 -254&#10;156 -248 6 3 7 1 3 -5 -4 -7 12 -39 36 -73 24 -34 50 -71 58 -83 96 -138 333&#10;-391 476 -507 456 -371 982 -592 1609 -676 188 -25 676 -25 870 0 502 65 932&#10;193 1379 411 849 415 1571 1094 2041 1921 194 340 353 746 439 1115 62 270 90&#10;480 102 771 l7 165 -104 46 c-131 58 -211 89 -368 145 -135 47 -412 133 -431&#10;133 -9 0 -10 -22 -4 -87z"/>
<path d="M1076 7385 c-241 -50 -440 -158 -617 -334 -154 -153 -247 -314 -300&#10;-517 -33 -126 -33 -324 -1 -439 70 -242 248 -425 492 -503 110 -35 180 -45&#10;310 -44 319 2 610 129 841 369 172 178 272 387 300 627 45 383 -170 712 -539&#10;822 -76 23 -108 27 -252 30 -115 2 -186 -1 -234 -11z m244 -536 c92 -41 152&#10;-123 172 -236 23 -135 -27 -284 -134 -399 -189 -202 -484 -184 -587 36 -22 47&#10;-26 68 -25 150 0 80 5 106 29 165 35 88 68 137 134 198 115 107 282 142 411&#10;86z"/>
<path d="M2416 7361 c-5 -8 -61 -312 -141 -771 -19 -107 -66 -375 -105 -594&#10;-38 -219 -70 -403 -70 -408 0 -4 134 -7 298 -6 l297 3 44 253 45 252 63 0 64&#10;0 124 -255 124 -255 341 0 341 0 -155 304 -156 304 53 27 c216 113 344 279&#10;391 507 54 261 -35 462 -248 562 -88 42 -178 64 -309 76 -124 12 -994 13&#10;-1001 1z m889 -518 c57 -30 79 -72 71 -137 -8 -67 -47 -123 -111 -155 -47 -25&#10;-59 -26 -228 -29 l-179 -3 6 28 c10 48 56 311 56 318 0 4 78 5 173 3 151 -4&#10;177 -7 212 -25z"/>
<path d="M4236 7362 c-3 -5 -46 -240 -96 -523 -152 -865 -190 -1081 -206&#10;-1163 -7 -43 -14 -82 -14 -87 0 -16 1029 -11 1150 5 307 42 514 186 593 414&#10;14 40 20 86 21 152 1 80 -3 103 -23 148 -32 71 -114 144 -202 178 l-68 27 91&#10;45 c156 78 246 189 284 349 51 217 -66 381 -313 440 -57 14 -157 17 -639 20&#10;-347 3 -574 1 -578 -5z m856 -461 c68 -26 88 -93 48 -159 -37 -60 -81 -72&#10;-278 -72 -161 0 -173 1 -168 18 3 9 13 62 22 117 9 55 22 103 28 108 16 11&#10;316 1 348 -12z m-88 -612 c22 -6 53 -24 69 -40 26 -26 29 -35 24 -71 -7 -55&#10;-33 -88 -92 -118 -45 -22 -63 -24 -228 -28 -100 -3 -182 -1 -188 5 -7 7 21&#10;199 36 251 6 16 322 17 379 1z"/>
<path d="M6040 7363 c0 -5 -18 -107 -40 -228 -76 -423 -270 -1531 -270 -1543&#10;0 -9 71 -12 297 -10 l297 3 38 215 c74 417 119 677 159 905 22 127 44 253 49&#10;280 55 307 66 376 62 380 -8 8 -592 6 -592 -2z"/>
<path d="M6775 7356 c-3 -10 -8 -41 -36 -216 -6 -36 -17 -94 -25 -130 -7 -36&#10;-16 -84 -19 -107 l-7 -43 261 0 c144 0 261 -2 261 -5 0 -6 -55 -320 -145 -826&#10;-41 -234 -75 -431 -75 -438 0 -8 78 -11 297 -9 l297 3 107 605 c58 333 109&#10;620 113 637 l8 33 261 2 262 3 42 235 c23 129 42 243 42 253 1 17 -35 18 -820&#10;16 -573 -2 -822 -6 -824 -13z"/>
</g>
</svg>